<?xml version="1.0" encoding="iso-8859-1"?>
<!-- Generator: Adobe Illustrator 21.0.1, SVG Export Plug-In . SVG Version: 6.00 Build 0)  -->
<svg version="1.1" id="Layer_1" xmlns="http://www.w3.org/2000/svg" xmlns:xlink="http://www.w3.org/1999/xlink" x="0px" y="0px"
	 viewBox="0 0 24.031 31" style="enable-background:new 0 0 24.031 31;" xml:space="preserve">
<path id="bootstrap" style="fill:#222222;" d="M17,8c0-3.088-2-3-2-3H6v7h8C15.354,12,17,11.093,17,8z M15,16H6v10
	c0,0,12.289-0.1,9,0c1.187-0.028,3-1.523,3-5C18,16.881,15,16,15,16z M24,21c0,9.065-9,10-9,10H0L-0.013-0.013L15,0
	c4.534,0,8,2.685,8,8s-4,6-4,6C24.764,14,24,21,24,21z"/>
</svg>
