<?xml version="1.0" encoding="iso-8859-1"?>
<!-- Generator: Adobe Illustrator 21.0.1, SVG Export Plug-In . SVG Version: 6.00 Build 0)  -->
<svg version="1.1" id="Layer_1" xmlns="http://www.w3.org/2000/svg" xmlns:xlink="http://www.w3.org/1999/xlink" x="0px" y="0px"
	 viewBox="0 0 19.002 19" style="enable-background:new 0 0 19.002 19;" xml:space="preserve">
<g>
	<path style="fill:#FFFFFF;" d="M17.727,4.85c-0.85-1.492-2.002-2.673-3.458-3.544C12.813,0.435,11.225,0,9.501,0
		C7.777,0,6.188,0.435,4.732,1.306C3.276,2.177,2.124,3.358,1.274,4.85C0.425,6.342,0,7.971,0,9.738c0,2.122,0.604,4.03,1.812,5.724
		c1.208,1.695,2.769,2.868,4.683,3.518c0.222,0.043,0.388,0.013,0.494-0.088c0.108-0.102,0.161-0.229,0.161-0.381
		c0-0.025-0.002-0.253-0.006-0.685c-0.005-0.431-0.007-0.807-0.007-1.128L6.853,16.75c-0.182,0.034-0.411,0.049-0.686,0.044
		c-0.277-0.004-0.563-0.033-0.86-0.089c-0.297-0.055-0.573-0.181-0.829-0.38c-0.256-0.198-0.437-0.458-0.544-0.78L3.81,15.254
		c-0.082-0.195-0.212-0.41-0.389-0.647c-0.178-0.236-0.357-0.397-0.538-0.482l-0.087-0.063c-0.058-0.043-0.111-0.093-0.161-0.153
		c-0.05-0.059-0.087-0.118-0.111-0.177c-0.024-0.059-0.005-0.108,0.061-0.146c0.066-0.039,0.186-0.057,0.359-0.057l0.247,0.038
		c0.165,0.033,0.369,0.135,0.612,0.304c0.243,0.169,0.443,0.389,0.6,0.659c0.19,0.346,0.418,0.61,0.686,0.793
		c0.268,0.182,0.538,0.272,0.81,0.272c0.272,0,0.507-0.021,0.705-0.063c0.198-0.043,0.383-0.106,0.557-0.19
		c0.074-0.567,0.277-1.002,0.606-1.306c-0.47-0.051-0.893-0.127-1.268-0.229c-0.375-0.101-0.763-0.266-1.162-0.495
		c-0.4-0.228-0.732-0.511-0.996-0.849c-0.263-0.338-0.48-0.783-0.649-1.331c-0.169-0.55-0.254-1.184-0.254-1.902
		c0-1.023,0.326-1.894,0.977-2.613C4.111,5.849,4.14,4.987,4.503,4.032c0.239-0.077,0.594-0.019,1.064,0.171
		c0.47,0.19,0.814,0.353,1.033,0.488c0.219,0.135,0.394,0.25,0.526,0.343c0.767-0.22,1.559-0.33,2.375-0.33
		c0.816,0,1.608,0.11,2.375,0.33l0.47-0.305c0.321-0.203,0.701-0.388,1.138-0.558c0.437-0.169,0.771-0.215,1.002-0.139
		c0.371,0.955,0.404,1.817,0.099,2.587c0.652,0.718,0.977,1.589,0.977,2.612c0,0.718-0.084,1.354-0.254,1.908
		c-0.169,0.554-0.387,0.998-0.655,1.331c-0.268,0.334-0.602,0.615-1.002,0.844c-0.4,0.228-0.787,0.393-1.162,0.494
		c-0.375,0.102-0.798,0.178-1.268,0.229c0.429,0.381,0.643,0.98,0.643,1.8v2.676c0,0.152,0.052,0.279,0.155,0.38
		c0.103,0.101,0.266,0.132,0.489,0.089c1.913-0.651,3.474-1.824,4.682-3.519c1.209-1.695,1.813-3.603,1.813-5.724
		C19.001,7.971,18.576,6.342,17.727,4.85L17.727,4.85z M17.727,4.85"/>
</g>
</svg>
