<?xml version="1.0" encoding="iso-8859-1"?>
<!-- Generator: Adobe Illustrator 21.0.1, SVG Export Plug-In . SVG Version: 6.00 Build 0)  -->
<svg version="1.1" id="Layer_1" xmlns="http://www.w3.org/2000/svg" xmlns:xlink="http://www.w3.org/1999/xlink" x="0px" y="0px"
	 viewBox="47.353 590.863 25 40.002" style="enable-background:new 47.353 590.863 25 40.002;" xml:space="preserve">
<g id="mouse">
	<path style="fill:#FFFFFF;" d="M68.692,594.52c-2.362-2.358-5.501-3.657-8.839-3.657c-6.892,0-12.5,5.602-12.5,12.487v15.027
		c0,6.885,5.608,12.487,12.5,12.487s12.5-5.602,12.5-12.487V603.35C72.353,600.015,71.053,596.879,68.692,594.52z M70.234,618.377
		c0,5.719-4.657,10.371-10.381,10.371s-10.381-4.652-10.381-10.371V603.35c0-5.719,4.657-10.371,10.381-10.371
		c2.772,0,5.379,1.079,7.341,3.037c1.961,1.96,3.041,4.564,3.041,7.334V618.377z"/>
	<path style="fill:#FFFFFF;" d="M59.854,597.424c-0.585,0-1.059,0.474-1.059,1.058v2.487c0,0.584,0.474,1.058,1.059,1.058
		c0.585,0,1.059-0.474,1.059-1.058v-2.487C60.913,597.897,60.439,597.424,59.854,597.424z"/>
	<path style="fill:#FFFFFF;" d="M59.854,602.746c-0.585,0-1.059,0.474-1.059,1.058v0.313c0,0.584,0.474,1.058,1.059,1.058
		c0.585,0,1.059-0.474,1.059-1.058v-0.313C60.913,603.22,60.439,602.746,59.854,602.746z"/>
</g>
</svg>
