<?xml version="1.0" encoding="iso-8859-1"?>
<!-- Generator: Adobe Illustrator 21.0.1, SVG Export Plug-In . SVG Version: 6.00 Build 0)  -->
<svg version="1.1" id="Layer_1" xmlns="http://www.w3.org/2000/svg" xmlns:xlink="http://www.w3.org/1999/xlink" x="0px" y="0px"
	 viewBox="0 0 18 31" style="enable-background:new 0 0 18 31;" xml:space="preserve">
<path id="responsive" style="fill:#222222;" d="M17.111,0.894C16.561,0.318,15.797-0.006,15,0H3C1.353,0.024,0.024,1.353,0,3v25
	c0.024,1.647,1.353,2.976,3,3h12c1.647-0.024,2.976-1.353,3-3V3C18.007,2.205,17.685,1.443,17.111,0.894z M7,3h4
	c0.25,0,0.25,0.128,0.25,0.378S11.25,4,11,4H7C6.75,4,6.75,3.628,6.75,3.378S6.75,3,7,3z M10.325,29.321
	c-0.731,0.728-1.915,0.726-2.643-0.005c-0.728-0.731-0.726-1.915,0.005-2.643c0.731-0.728,1.915-0.726,2.643,0.005
	c0.349,0.35,0.545,0.825,0.545,1.319C10.882,28.495,10.683,28.974,10.325,29.321z M16,24c-0.083,0.514-0.486,0.917-1,1H3
	c-0.513-0.085-0.915-0.487-1-1V7c0.085-0.513,0.487-0.915,1-1h12c0.513,0.084,0.916,0.487,1,1V24z"/>
</svg>
