<?xml version="1.0" encoding="iso-8859-1"?>
<!-- Generator: Adobe Illustrator 21.0.1, SVG Export Plug-In . SVG Version: 6.00 Build 0)  -->
<svg version="1.1" id="Layer_1" xmlns="http://www.w3.org/2000/svg" xmlns:xlink="http://www.w3.org/1999/xlink" x="0px" y="0px"
	 viewBox="0 0 21 13" style="enable-background:new 0 0 21 13;" xml:space="preserve">
<g>
	<g>
		<path style="fill-rule:evenodd;clip-rule:evenodd;fill:#FFFFFF;" d="M18.073,8.266c0.697,0.744,1.432,1.444,2.057,2.263
			c0.276,0.364,0.537,0.739,0.737,1.162c0.283,0.6,0.027,1.261-0.466,1.297l-3.059-0.002c-0.789,0.072-1.419-0.276-1.948-0.866
			c-0.423-0.472-0.816-0.974-1.223-1.462c-0.167-0.199-0.342-0.387-0.551-0.535c-0.417-0.297-0.78-0.206-1.019,0.27
			c-0.243,0.485-0.298,1.021-0.322,1.561c-0.033,0.788-0.25,0.995-0.974,1.031c-1.547,0.08-3.014-0.176-4.378-1.029
			c-1.202-0.752-2.134-1.815-2.945-3.017c-1.58-2.342-2.79-4.914-3.877-7.559C-0.139,0.785,0.04,0.465,0.642,0.454
			c0.998-0.021,1.996-0.02,2.995-0.002c0.406,0.007,0.674,0.261,0.831,0.68c0.54,1.452,1.201,2.834,2.03,4.115
			C6.718,5.588,6.944,5.929,7.264,6.17c0.355,0.266,0.625,0.178,0.792-0.255c0.106-0.274,0.152-0.569,0.176-0.863
			c0.079-1.01,0.089-2.018-0.049-3.025C8.098,1.399,7.774,0.992,7.201,0.873c-0.292-0.06-0.249-0.179-0.107-0.362
			C7.34,0.196,7.571,0,8.032,0h3.458c0.544,0.118,0.665,0.385,0.74,0.984l0.003,4.201c-0.006,0.232,0.106,0.92,0.488,1.074
			c0.306,0.109,0.507-0.158,0.69-0.37c0.828-0.961,1.419-2.097,1.947-3.273c0.234-0.517,0.436-1.054,0.631-1.591
			c0.145-0.398,0.372-0.594,0.782-0.586l3.328,0.003c0.098,0,0.198,0.002,0.294,0.02c0.561,0.105,0.715,0.369,0.541,0.967
			c-0.273,0.94-0.804,1.723-1.323,2.51c-0.555,0.84-1.148,1.651-1.699,2.496C17.405,7.207,17.445,7.596,18.073,8.266L18.073,8.266z
			 M18.073,8.992"/>
	</g>
</g>
</svg>
