<?xml version="1.0" encoding="iso-8859-1"?>
<!-- Generator: Adobe Illustrator 21.0.1, SVG Export Plug-In . SVG Version: 6.00 Build 0)  -->
<svg version="1.1" id="Layer_1" xmlns="http://www.w3.org/2000/svg" xmlns:xlink="http://www.w3.org/1999/xlink" x="0px" y="0px"
	 viewBox="0 0 28.001 26.003" style="enable-background:new 0 0 28.001 26.003;" xml:space="preserve">
<g>
	<g>
		<path style="fill:#FF5252;" d="M27.954,7.753C27.547,3.259,24.362,0,20.376,0c-2.654,0-5.086,1.429-6.453,3.713
			C12.569,1.397,10.237,0,7.626,0C3.64,0,0.456,3.259,0.048,7.753c-0.034,0.2-0.166,1.242,0.237,2.947
			c0.581,2.458,1.922,4.694,3.879,6.46l9.755,8.843l9.921-8.841c1.956-1.77,3.297-4.005,3.879-6.463
			C28.12,8.998,27.986,7.952,27.954,7.753L27.954,7.753z M27.954,7.753"/>
	</g>
</g>
</svg>
