<?xml version="1.0" encoding="utf-8"?>
<!-- Generator: Adobe Illustrator 21.0.1, SVG Export Plug-In . SVG Version: 6.00 Build 0)  -->
<svg version="1.1" id="Layer_1" xmlns="http://www.w3.org/2000/svg" xmlns:xlink="http://www.w3.org/1999/xlink" x="0px" y="0px"
	 viewBox="0 0 47 29" style="enable-background:new 0 0 47 29;" xml:space="preserve">
<style type="text/css">
	.st0{fill:#FFFFFF;}
</style>
<path class="st0" d="M7,29H1c-0.6,0-1-0.5-1-1V1c0-0.6,0.4-1,1-1h6c0.6,0,1,0.4,1,1v27C8,28.5,7.6,29,7,29z"/>
<path class="st0" d="M20,29h-6c-0.6,0-1-0.5-1-1V1c0-0.6,0.4-1,1-1h6c0.5,0,1,0.4,1,1v27C21,28.5,20.5,29,20,29z"/>
<path class="st0" d="M33,29h-6c-0.5,0-1-0.5-1-1V1c0-0.6,0.5-1,1-1h6c0.5,0,1,0.4,1,1v27C34,28.5,33.5,29,33,29z"/>
<path class="st0" d="M39,10V1c0-0.6,0.5-1,1-1h6c0.5,0,1,0.4,1,1v2L39,10z"/>
<path class="st0" d="M47,20v8c0,0.5-0.5,1-1,1h-6c-0.5,0-1-0.5-1-1V12L47,20z"/>
</svg>
