<svg xmlns="http://www.w3.org/2000/svg" xmlns:xlink="http://www.w3.org/1999/xlink" width="39" height="243" viewBox="0 0 39 243"><svg viewBox="0 0 24.031 31" width="24.031" height="31" id="bootstrap" y="0"><path d="M17 8c0-3.088-2-3-2-3H6v7h8c1.354 0 3-.907 3-4zm-2 8H6v10s12.289-.1 9 0c1.187-.028 3-1.523 3-5 0-4.119-3-5-3-5zm9 5c0 9.065-9 10-9 10H0L-.013-.013 15 0c4.534 0 8 2.685 8 8s-4 6-4 6c5.764 0 5 7 5 7z" fill="#222"></path></svg><svg viewBox="0 0 39 31" width="39" height="31" id="code" y="31"><path d="M21 0l-8 31h3l8-31h-3zM10 4L0 15l10 11 1-3-7-8 7-8-1-3zm19 22l10-11L29 4l-1 3 7 8-7 8 1 3z" fill="#222"></path></svg><svg viewBox="0 0 7 19" width="7" height="19" id="facebook" y="62"><path d="M1.765 3.884v2.76H0v2.321h1.765V19h2.459V8.967h2.433l.339-2.334H4.238V3.268c0-.345.395-.808.786-.808H7V0H5.48C1.676 0 1.765 2.324 1.765 2.829v1.055zm.01-1.055" fill="#fff"></path></svg><svg viewBox="0 0 19.002 19" width="19.002" height="19" id="github" y="81"><path d="M17.727 4.85a9.584 9.584 0 0 0-3.458-3.544A9.114 9.114 0 0 0 9.501 0a9.118 9.118 0 0 0-4.769 1.306A9.584 9.584 0 0 0 1.274 4.85C.425 6.342 0 7.971 0 9.738c0 2.122.604 4.03 1.812 5.724 1.208 1.695 2.769 2.868 4.683 3.518.222.043.388.013.494-.088a.502.502 0 0 0 .161-.381l-.006-.685a97.718 97.718 0 0 1-.007-1.128l-.284.052a3.485 3.485 0 0 1-.686.044 5.024 5.024 0 0 1-.86-.089 1.9 1.9 0 0 1-.829-.38 1.597 1.597 0 0 1-.544-.78l-.124-.291a3.167 3.167 0 0 0-.389-.647c-.178-.236-.357-.397-.538-.482l-.087-.063a.925.925 0 0 1-.161-.153.663.663 0 0 1-.111-.177c-.024-.059-.005-.108.061-.146.066-.039.186-.057.359-.057l.247.038c.165.033.369.135.612.304.243.169.443.389.6.659.19.346.418.61.686.793.268.182.538.272.81.272s.507-.021.705-.063c.198-.043.383-.106.557-.19.074-.567.277-1.002.606-1.306a8.244 8.244 0 0 1-1.268-.229 4.919 4.919 0 0 1-1.162-.495 3.352 3.352 0 0 1-.996-.849c-.263-.338-.48-.783-.649-1.331-.169-.55-.254-1.184-.254-1.902 0-1.023.326-1.894.977-2.613-.304-.768-.275-1.63.088-2.585.239-.077.594-.019 1.064.171.47.19.814.353 1.033.488.219.135.394.25.526.343a8.573 8.573 0 0 1 2.375-.33c.816 0 1.608.11 2.375.33l.47-.305a6.632 6.632 0 0 1 1.138-.558c.437-.169.771-.215 1.002-.139.371.955.404 1.817.099 2.587.652.718.977 1.589.977 2.612 0 .718-.084 1.354-.254 1.908-.169.554-.387.998-.655 1.331a3.49 3.49 0 0 1-1.002.844c-.4.228-.787.393-1.162.494a8.244 8.244 0 0 1-1.268.229c.429.381.643.98.643 1.8v2.676c0 .152.052.279.155.38.103.101.266.132.489.089 1.913-.651 3.474-1.824 4.682-3.519 1.209-1.695 1.813-3.603 1.813-5.724-.002-1.768-.427-3.397-1.276-4.889zm0 0" fill="#fff"></path></svg><svg viewBox="0 0 28.001 26.003" width="28.001" height="26.003" id="heart" y="100"><path d="M27.954 7.753C27.547 3.259 24.362 0 20.376 0c-2.654 0-5.086 1.429-6.453 3.713C12.569 1.397 10.237 0 7.626 0 3.64 0 .456 3.259.048 7.753c-.034.2-.166 1.242.237 2.947.581 2.458 1.922 4.694 3.879 6.46l9.755 8.843 9.921-8.841c1.956-1.77 3.297-4.005 3.879-6.463.401-1.701.267-2.747.235-2.946zm0 0" fill="#ff5252"></path></svg><svg viewBox="47.353 590.863 25 40.002" width="25" height="40.002" id="mouse" y="127"><g fill="#fff"><path d="M68.692 594.52a12.43 12.43 0 0 0-8.839-3.657c-6.892 0-12.5 5.602-12.5 12.487v15.027c0 6.885 5.608 12.487 12.5 12.487s12.5-5.602 12.5-12.487V603.35a12.4 12.4 0 0 0-3.661-8.83zm1.542 23.857c0 5.719-4.657 10.371-10.381 10.371s-10.381-4.652-10.381-10.371V603.35c0-5.719 4.657-10.371 10.381-10.371 2.772 0 5.379 1.079 7.341 3.037a10.301 10.301 0 0 1 3.041 7.334v15.027z"></path><path d="M59.854 597.424c-.585 0-1.059.474-1.059 1.058v2.487a1.059 1.059 0 0 0 2.118 0v-2.487c0-.585-.474-1.058-1.059-1.058zm0 5.322c-.585 0-1.059.474-1.059 1.058v.313a1.059 1.059 0 0 0 2.118 0v-.313c0-.584-.474-1.058-1.059-1.058z"></path></g></svg><svg viewBox="0 0 37 31" width="37" height="31" id="pixel" y="168"><path d="M0 16h7v7H0v-7zm7 8h7v7H7v-7zm7-8h7v7h-7v-7zm8-8h7v7h-7V8zm8-8h7v7h-7V0z" fill="#222"></path></svg><svg viewBox="0 0 18 31" width="18" height="31" id="responsive" y="199"><path d="M17.111.894A2.89 2.89 0 0 0 15 0H3a3.044 3.044 0 0 0-3 3v25a3.044 3.044 0 0 0 3 3h12a3.044 3.044 0 0 0 3-3V3a2.88 2.88 0 0 0-.889-2.106zM7 3h4c.25 0 .25.128.25.378S11.25 4 11 4H7c-.25 0-.25-.372-.25-.622S6.75 3 7 3zm3.325 26.321a1.87 1.87 0 1 1 .55-1.324c.007.498-.192.977-.55 1.324zM16 24a1.208 1.208 0 0 1-1 1H3a1.215 1.215 0 0 1-1-1V7a1.215 1.215 0 0 1 1-1h12c.513.084.916.487 1 1v17z" fill="#222"></path></svg><svg viewBox="0 0 21 13" width="21" height="13" id="vk" y="230"><path d="M18.073 8.266c.697.744 1.432 1.444 2.057 2.263.276.364.537.739.737 1.162.283.6.027 1.261-.466 1.297l-3.059-.002c-.789.072-1.419-.276-1.948-.866-.423-.472-.816-.974-1.223-1.462a2.998 2.998 0 0 0-.551-.535c-.417-.297-.78-.206-1.019.27-.243.485-.298 1.021-.322 1.561-.033.788-.25.995-.974 1.031-1.547.08-3.014-.176-4.378-1.029-1.202-.752-2.134-1.815-2.945-3.017C2.402 6.597 1.192 4.025.105 1.38-.139.785.04.465.642.454 1.64.433 2.638.434 3.637.452c.406.007.674.261.831.68.54 1.452 1.201 2.834 2.03 4.115.22.341.446.682.766.923.355.266.625.178.792-.255.106-.274.152-.569.176-.863.079-1.01.089-2.018-.049-3.025-.085-.628-.409-1.035-.982-1.154-.292-.06-.249-.179-.107-.362C7.34.196 7.571 0 8.032 0h3.458c.544.118.665.385.74.984l.003 4.201c-.006.232.106.92.488 1.074.306.109.507-.158.69-.37.828-.961 1.419-2.097 1.947-3.273.234-.517.436-1.054.631-1.591.145-.398.372-.594.782-.586l3.328.003c.098 0 .198.002.294.02.561.105.715.369.541.967-.273.94-.804 1.723-1.323 2.51-.555.84-1.148 1.651-1.699 2.496-.507.772-.467 1.161.161 1.831zm0 .726" fill-rule="evenodd" clip-rule="evenodd" fill="#fff"></path></svg></svg>